HIERARCHY
ROOT Hips
{
  OFFSET 26.1382 94.4045 -15.3854
  CHANNELS 6 Xposition Yposition Zposition Zrotation Xrotation Yrotation
  JOINT RightUpLeg
  {
    OFFSET -8.9458 -8.66707 0.101652
    CHANNELS 3 Zrotation Xrotation Yrotation
    JOINT RightLeg
    {
      OFFSET 0 -44.4227 1.3727
      CHANNELS 3 Zrotation Xrotation Yrotation
      JOINT RightFoot
      {
        OFFSET 0.253549 -42.0924 -1.46059
        CHANNELS 3 Zrotation Xrotation Yrotation
        JOINT RightToes
        {
          OFFSET 0.04 -4.41509 8.4991
          CHANNELS 3 Zrotation Xrotation Yrotation
          End Site
          {
            OFFSET -0.08 -0.137448 9.77979
          }
        }
      }
    }
  }
  JOINT Spine
  {
    OFFSET 0 11.8905 0
    CHANNELS 3 Zrotation Xrotation Yrotation
    JOINT Spine1
    {
      OFFSET 0 25.6574 0.127663
      CHANNELS 3 Zrotation Xrotation Yrotation
      JOINT HEad
      {
        OFFSET 0 8.73416 0.011341
        CHANNELS 3 Zrotation Xrotation Yrotation
        End Site
        {
          OFFSET -0.29 12.7742 2.51395
        }
      }
      JOINT LeftShoulder1
      {
        OFFSET 8.99 -0.362252 -0.22
        CHANNELS 3 Zrotation Xrotation Yrotation
        JOINT LeftArm
        {
          OFFSET 10.2827 -0.00338 0.322123
          CHANNELS 3 Zrotation Xrotation Yrotation
          JOINT LeftForeArm
          {
            OFFSET 32.7669 0.099144 -1.42434
            CHANNELS 3 Zrotation Xrotation Yrotation
            JOINT LeftHand
            {
              OFFSET 27.5643 0.085362 1.02216
              CHANNELS 3 Zrotation Xrotation Yrotation
              End Site
              {
                OFFSET 16.7443 -0.6 1.50291
              }
            }
          }
        }
      }
      JOINT RightShoulder
      {
        OFFSET -8.99 -0.362252 -0.22
        CHANNELS 3 Zrotation Xrotation Yrotation
        JOINT RightArm
        {
          OFFSET -10.2827 -0.00338 0.322123
          CHANNELS 3 Zrotation Xrotation Yrotation
          JOINT RightForeArm
          {
            OFFSET -32.8971 0.099144 -1.42434
            CHANNELS 3 Zrotation Xrotation Yrotation
            JOINT RightHand
            {
              OFFSET -27.4921 0.085362 1.02216
              CHANNELS 3 Zrotation Xrotation Yrotation
              End Site
              {
                OFFSET -16.6312 -0.6 1.50291
              }
            }
          }
        }
      }
    }
  }
  JOINT LeftUpLeg
  {
    OFFSET 8.9458 -8.66707 0.101652
    CHANNELS 3 Zrotation Xrotation Yrotation
    JOINT LeftLeg
    {
      OFFSET 0 -44.4227 1.3727
      CHANNELS 3 Zrotation Xrotation Yrotation
      JOINT LeftFoot
      {
        OFFSET -0.253549 -42.0924 -1.46059
        CHANNELS 3 Zrotation Xrotation Yrotation
        JOINT LeftToes
        {
          OFFSET -0.04 -4.41509 8.4991
          CHANNELS 3 Zrotation Xrotation Yrotation
          End Site
          {
            OFFSET 0.08 -0.047448 9.77979
          }
        }
      }
    }
  }
}
MOTION
Frames:	16
Frame Time:	0.0166667
21.651 98.4059 -33.7746 10.9004 3.44951 115.816 -27.6314 9.32694 11.2236 36.0005 -2.25861 -56.0815 -23.5362 -3.0271 -1.70437 0.0462048 0.000533403 0.662642 -6.83548 21.7762 4.67409 1.15068 -0.336252 -0.0423892 -13.2051 29.0068 6.98106 -1.59028e-015 0 -3.18055e-015 166.796 -58.854 -160.262 -114.686 65.0723 0.845054 13.352 19.5769 -3.27044 14.7758 7.38217 -0.288168 98.8343 -5.34434 68.8967 22.4084 48.7207 78.2318 16.1918 22.526 7.03979 1.10609 4.39485 -17.3187 13.4046 -3.22102 31.9926 72.6361 16.7382 -13.2134 -6.38221e-009 1.56031e-007 -4.88727e-009 
21.6693 98.2026 -34.4553 11.2604 3.73567 115.376 -29.7511 9.71765 12.3169 38.7031 -2.11788 -58.7573 -20.0845 -5.5543 -0.662298 0.0462048 0.000533403 0.662642 -7.66943 22.3208 4.87647 1.09419 -0.319412 -0.0404186 -12.499 30.9129 4.81405 1.59028e-015 0 -0 168.811 -59.2052 -159.195 -112.296 65.6081 -1.29554 13.737 19.6073 -3.48322 15.4654 7.57285 -0.909913 99.0644 -5.37445 69.0869 21.9563 48.8976 78.9863 16.2412 22.6904 7.1705 -0.327214 5.74601 -20.6283 15.7972 -3.12039 35.3722 74.0706 17.557 -14.0489 -6.38221e-009 1.56031e-007 -4.88727e-009 
21.6599 97.9177 -35.183 11.5865 4.01943 114.922 -31.549 10.0403 13.4176 40.9415 -2.00732 -60.6911 -16.3743 -7.51539 0.386777 0.0462048 0.000533403 0.662642 -8.44398 22.8335 4.96613 1.03673 -0.302281 -0.0386416 -11.8665 32.43 3.07998 1.59028e-015 1.59028e-015 -0 170.764 -59.5241 -158.064 -109.924 66.1796 -3.41519 13.4476 18.9969 -3.81249 16.0784 7.76844 -1.40247 99.317 -5.51423 69.321 21.5052 49.0959 79.7832 16.3691 22.5305 7.0469 -0.480422 6.5307 -23.3613 15.2428 -3.03 39.0963 76.4887 17.1687 -14.5013 -6.38221e-009 1.56031e-007 -4.88727e-009 
21.6291 97.5899 -35.9338 11.877 4.28733 114.447 -33.026 10.3182 14.5334 42.6032 -1.92996 -61.9335 -12.447 -8.91132 1.35716 0.0462048 0.000533403 0.662642 -9.15609 23.3147 4.96459 0.978537 -0.284931 -0.0372266 -11.3384 33.5798 1.76911 1.59028e-015 7.95139e-016 -0 172.677 -59.8197 -156.867 -107.497 66.7516 -5.58016 13.7059 18.9039 -3.97597 16.6298 7.97109 -1.76325 99.5853 -5.74259 69.5925 21.0652 49.3069 80.5942 16.4139 22.4908 7.10493 -0.601403 7.15259 -25.7072 14.4842 -2.94532 42.462 78.8082 16.8186 -14.9619 -6.38221e-009 1.56031e-007 -4.88727e-009 
21.5748 97.2946 -36.6995 12.1342 4.52159 113.943 -34.1263 10.5688 15.6616 43.5112 -1.88823 -62.5762 -8.33208 -9.7271 2.19185 0.0462048 0.000533403 0.662642 -9.79947 23.7653 4.89443 0.919855 -0.267436 -0.0358943 -10.9315 34.3872 0.865145 4.41391e-032 -7.95139e-016 3.18055e-015 174.54 -60.0921 -155.623 -105.048 67.301 -7.77867 13.5702 18.4703 -4.22418 17.1345 8.18082 -1.99298 99.8632 -6.03491 69.8952 20.6258 49.5284 81.4052 16.5127 22.295 7.0236 -0.697963 7.61601 -27.6659 13.5817 -2.86725 45.4742 80.9951 16.4982 -15.4123 -6.38221e-009 1.56031e-007 -4.88727e-009 
21.5517 97.0465 -37.4795 12.3689 4.70509 113.418 -34.6858 11.4486 17.1002 43.4074 -1.94718 -60.8952 -3.85988 -9.51677 2.73559 0.0462048 0.000533403 0.662642 -10.3604 24.1935 4.76745 0.86093 -0.249866 -0.0344932 -10.6509 34.8806 0.344541 -0 -3.18055e-015 -0 176.325 -60.3369 -154.375 -102.609 67.8029 -9.99828 13.7663 18.3719 -4.40209 17.6028 8.39671 -2.10121 100.148 -6.36259 70.2224 20.1573 49.763 82.2293 16.5753 22.2184 7.04777 -0.754251 7.96582 -29.2458 12.5827 -2.79617 48.1496 83.0059 16.1944 -15.8195 -6.38221e-009 1.56031e-007 -4.88727e-009 
21.5009 96.8394 -38.2586 12.5852 4.82787 112.874 -35.1484 11.836 18.39 42.8896 -2.00788 -59.4085 0.548868 -9.10244 3.09476 0.0462048 0.000533403 0.662642 -10.8317 24.5991 4.59649 0.802004 -0.232296 -0.0330684 -10.4923 35.0902 0.17585 1.59028e-015 -2.38542e-015 -0 177.983 -60.5451 -153.185 -100.276 68.2415 -12.1739 13.7403 18.1047 -4.64601 18.0378 8.61711 -2.10017 100.439 -6.70041 70.569 19.6232 50.0132 83.0881 16.6648 22.0853 6.99001 -0.775096 8.18379 -30.4641 11.519 -2.73309 50.4804 84.8624 15.9191 -16.2065 -6.38221e-009 1.56031e-007 -4.88727e-009 
21.4749 96.6751 -39.015 12.7829 4.88638 112.315 -34.5044 11.4166 18.879 44.0535 -2.05356 -57.2489 -16.3839 -8.7264 0.34065 0.0462048 0.000533403 0.662642 -11.2064 24.9829 4.39181 0.743323 -0.214798 -0.0316252 -10.5218 33.9693 1.50135 -1.59028e-015 -7.95139e-016 -0 179.447 -60.6988 -152.129 -98.1489 68.6027 -14.2296 13.9223 18.0639 -4.86568 18.4269 8.83682 -2.00239 100.745 -7.02841 70.934 18.9972 50.2782 84.0028 16.7349 22.0316 6.99262 -0.840842 8.28399 -30.228 10.3143 -2.71069 51.4485 86.4951 15.5835 -16.3531 -6.38221e-009 1.56031e-007 -4.88727e-009 
21.409 96.4238 -39.7629 12.9613 4.88362 111.749 -33.2749 10.8252 19.226 43.9186 -2.11433 -55.4619 -32.7793 -7.78008 -1.91992 0.0462048 0.000533403 0.662642 -11.481 25.343 4.15971 0.685129 -0.197445 -0.030169 -10.5979 32.784 2.90152 -0 -3.18055e-015 -0 -179.336 -60.7804 -151.266 -96.3376 68.8947 -16.0692 13.9937 17.9588 -5.13137 18.7501 9.05459 -1.82053 101.08 -7.33589 71.3212 18.2757 50.5519 84.9795 16.8121 21.9324 6.94659 -0.927979 8.25297 -28.6947 9.01642 -2.72641 51.1631 87.9771 15.2198 -16.3172 -6.38221e-009 1.56031e-007 -4.88727e-009 
21.3529 96.3657 -40.5065 13.1197 4.81725 111.187 -34.2726 11.2454 20.529 46.2982 -2.13413 -53.1832 -24.6845 -6.9481 -0.772159 0.0462048 0.000533403 0.662642 -11.6457 25.6771 3.90222 0.627666 -0.180309 -0.0287052 -10.7042 31.5608 4.33691 1.59028e-015 -2.38542e-015 3.18055e-015 -178.382 -60.7746 -150.611 -94.8959 69.1399 -17.6359 14.2182 18.0087 -5.38541 18.9895 9.26939 -1.56979 101.456 -7.61664 71.737 17.4768 50.826 86.0119 16.8757 21.8586 6.92677 -0.887739 8.18695 -27.1255 7.75543 -2.74301 50.8136 89.3097 14.8793 -16.2549 -6.38221e-009 1.56031e-007 -4.88727e-009 
21.2951 96.1252 -41.1801 13.2593 4.68178 110.648 -33.8583 11.187 21.2636 48.3626 -2.18788 -49.9398 -34.8175 -4.24364 -2.23452 0.0462048 0.000533403 0.662642 -11.6899 25.9841 3.61903 0.571178 -0.163463 -0.0272391 -10.8238 30.3261 5.77204 1.59028e-015 -1.59028e-015 -0 -177.664 -60.6707 -150.142 -93.8282 69.3675 -18.9112 14.4036 18.0285 -5.65503 19.1411 9.47703 -1.27046 101.876 -7.86394 72.1855 16.6296 51.0934 87.0824 16.938 21.7398 6.8645 -0.707798 8.04735 -25.5576 6.53193 -2.761 50.3851 90.5251 14.5803 -16.2147 -6.38221e-009 1.56031e-007 -4.88727e-009 
21.2272 96.0547 -41.82 13.3811 4.47542 110.149 -35.0525 11.3289 22.7083 51.7615 -2.21049 -46.4986 -30.7206 -2.43118 -2.14869 0.0462048 0.000533403 0.662642 -11.6106 26.2633 3.31053 0.515908 -0.14698 -0.025751 -10.9401 29.1057 7.17535 3.18055e-015 3.18055e-015 -6.36111e-015 -177.119 -60.465 -149.804 -93.081 69.5986 -19.9257 14.6977 18.1243 -5.8989 19.216 9.67183 -0.944478 102.333 -8.07215 72.6673 15.7619 51.3504 88.1709 16.989 21.6308 6.80484 -0.436538 7.88796 -24.0134 5.35447 -2.77899 49.9241 91.634 14.2747 -16.1272 -6.38221e-009 1.56031e-007 -4.88727e-009 
21.1553 95.9116 -42.4063 13.4857 4.20292 109.71 -34.7105 8.8392 22.507 54.1303 3.53426 -46.3624 -30.5335 -2.40308 -1.78846 0.0462048 0.000533403 0.662642 -11.4143 26.5126 2.97854 0.462101 -0.130933 -0.0243202 -11.0394 27.9242 8.5194 2.20695e-031 -3.97569e-015 3.18055e-015 -176.673 -60.1621 -149.529 -92.575 69.8451 -20.7352 14.9678 18.1843 -6.12383 19.2312 9.84971 -0.60803 102.815 -8.24133 73.1818 14.8891 51.5952 89.2621 17.0281 21.5072 6.71855 -0.0721053 7.69814 -22.5169 4.22483 -2.79713 49.4277 92.6456 13.9615 -15.9988 -6.38221e-009 1.56031e-007 -4.88727e-009 
21.0243 95.8179 -42.9357 13.5683 3.87366 109.34 -34.4433 6.2153 22.2265 55.5365 7.97505 -46.7994 -29.0634 -2.82501 -1.45675 0.0462048 0.000533403 0.662642 -11.1149 26.7247 2.63034 0.409999 -0.115394 -0.0229114 -11.1143 26.8022 9.78122 3.18055e-015 7.95139e-016 -0 -176.261 -59.7708 -149.256 -92.2257 70.1099 -21.4041 15.2875 18.2719 -6.30785 19.2001 10.0085 -0.267576 103.313 -8.37896 73.7304 14.0137 51.8252 90.3518 17.046 21.4091 6.63559 0.361599 7.46337 -21.0813 3.14618 -2.81533 48.9013 93.5824 13.6332 -15.8287 -6.38221e-009 1.56031e-007 -4.88727e-009 
20.8469 95.7395 -43.4044 13.6226 3.49962 109.043 -34.0869 3.68611 21.8686 56.3451 11.435 -47.3118 -28.5631 -3.05271 -1.22336 0.0462048 0.000533403 0.662642 -10.727 26.8922 2.2752 0.359846 -0.100436 -0.0215173 -11.164 25.7545 10.9422 -1.59028e-015 0 -0 -175.844 -59.2979 -148.943 -91.9799 70.3927 -21.9722 15.5713 18.3287 -6.45572 19.1273 10.1462 0.0780502 103.824 -8.49677 74.3181 13.1311 52.0359 91.4397 17.0468 21.318 6.5309 0.850773 7.18727 -19.7133 2.12232 -2.83332 48.3559 94.4327 13.2836 -15.6055 -6.38221e-009 1.56031e-007 -4.88727e-009 
20.6258 95.6868 -43.8145 13.6437 3.09478 108.819 -33.7264 1.34553 21.4789 56.8363 14.307 -47.8113 -27.7824 -3.27452 -1.02748 0.0462048 0.000533403 0.662642 -10.2653 27.0122 1.92185 0.311887 -0.0861322 -0.0201304 -11.1925 24.79 11.9883 -0 -7.95139e-016 -0 -175.404 -58.7487 -148.56 -91.8109 70.692 -22.4548 15.8748 18.3872 -6.55788 19.0115 10.2606 0.429013 104.351 -8.60372 74.95 12.2375 52.2226 92.5231 17.0391 21.2478 6.41544 1.34915 6.85858 -18.4215 1.15507 -2.85068 47.8083 95.2175 12.9114 -15.333 -6.38221e-009 1.56031e-007 -4.88727e-009 
